<svg xmlns="http://www.w3.org/2000/svg" viewBox="0 0 200 200" fill="none">
  <defs>
    <linearGradient id="gA" x1="30" y1="10" x2="170" y2="190" gradientUnits="userSpaceOnUse">
      <stop offset="0%" stop-color="#0055cc"/>
      <stop offset="100%" stop-color="#00aaff"/>
    </linearGradient>
    <linearGradient id="gB" x1="60" y1="80" x2="160" y2="190" gradientUnits="userSpaceOnUse">
      <stop offset="0%" stop-color="#0077ee"/>
      <stop offset="100%" stop-color="#33ccff"/>
    </linearGradient>
  </defs>

  <!-- Left outer leg of A -->
  <path d="M18 185 L72 28 Q80 12 88 28 L100 65 L58 185 Z" fill="url(#gA)"/>

  <!-- Right outer leg of A -->
  <path d="M182 185 L128 28 Q120 12 112 28 L100 65 L142 185 Z" fill="url(#gB)"/>

  <!-- Inner shadow cut — left leg -->
  <path d="M52 185 L78 108 L100 120 L70 185 Z" fill="#08111f"/>

  <!-- Inner shadow cut — right leg -->
  <path d="M148 185 L122 108 L100 120 L130 185 Z" fill="#08111f"/>

  <!-- Crossbar / body connecting the two legs -->
  <path d="M68 118 Q80 105 100 108 Q120 105 132 118 L128 134 Q115 122 100 124 Q85 122 72 134 Z" fill="url(#gA)"/>

  <!-- Person dot at apex -->
  <circle cx="100" cy="18" r="13" fill="url(#gB)"/>

  <!-- Inner flowing curves (bottom left swoop) -->
  <path d="M38 185 Q52 160 68 148 L80 160 Q62 172 52 185 Z" fill="url(#gA)" opacity="0.7"/>

  <!-- Inner flowing curves (bottom right swoop) -->
  <path d="M162 185 Q148 160 132 148 L120 160 Q138 172 148 185 Z" fill="url(#gB)" opacity="0.7"/>
</svg>
